<svg width="368" height="517" viewBox="0 0 368 517" fill="none" xmlns="http://www.w3.org/2000/svg">
<circle cx="142" cy="449" r="8" fill="#F733B6"/>
<circle cx="163" cy="449" r="8" fill="#F733B6"/>
<circle cx="184" cy="449" r="8" fill="#F733B6"/>
<circle cx="205" cy="449" r="8" fill="#F733B6"/>
<circle cx="205" cy="428" r="8" fill="#F733B6"/>
<circle cx="205" cy="407" r="8" fill="#F733B6"/>
<circle cx="184" cy="428" r="8" fill="#F733B6"/>
<circle cx="184" cy="407" r="8" fill="#F733B6"/>
<circle cx="163" cy="428" r="8" fill="#F733B6"/>
<circle cx="163" cy="407" r="8" fill="#F733B6"/>
<circle cx="142" cy="428" r="8" fill="#F733B6"/>
<circle cx="142" cy="407" r="8" fill="#F733B6"/>
<circle cx="205" cy="386" r="8" fill="#F733B6"/>
<circle cx="226" cy="449" r="8" fill="#F733B6"/>
<circle cx="226" cy="428" r="8" fill="#F733B6"/>
<circle cx="226" cy="407" r="8" fill="#F733B6"/>
<circle cx="226" cy="386" r="8" fill="#F733B6"/>
<circle cx="184" cy="386" r="8" fill="#F733B6"/>
<circle cx="163" cy="386" r="8" fill="#F733B6"/>
<circle cx="142" cy="386" r="8" fill="#F733B6"/>
<circle cx="142" cy="365" r="8" fill="#F733B6"/>
<circle cx="163" cy="365" r="8" fill="#F733B6"/>
<circle cx="184" cy="365" r="8" fill="#F733B6"/>
<circle cx="205" cy="365" r="8" fill="#F733B6"/>
<circle cx="205" cy="344" r="8" fill="#F733B6"/>
<circle cx="184" cy="344" r="8" fill="#F733B6"/>
<circle cx="163" cy="344" r="8" fill="#F733B6"/>
<circle cx="142" cy="344" r="8" fill="#F733B6"/>
<circle cx="226" cy="365" r="8" fill="#F733B6"/>
<circle cx="226" cy="344" r="8" fill="#F733B6"/>
<circle cx="142" cy="323" r="8" fill="#F733B6"/>
<circle cx="163" cy="323" r="8" fill="#F733B6"/>
<circle cx="184" cy="323" r="8" fill="#F733B6"/>
<circle cx="205" cy="323" r="8" fill="#F733B6"/>
<circle cx="205" cy="302" r="8" fill="#F733B6"/>
<circle cx="205" cy="281" r="8" fill="#F733B6"/>
<circle cx="184" cy="302" r="8" fill="#F733B6"/>
<circle cx="184" cy="281" r="8" fill="#F733B6"/>
<circle cx="163" cy="302" r="8" fill="#F733B6"/>
<circle cx="163" cy="281" r="8" fill="#F733B6"/>
<circle cx="142" cy="302" r="8" fill="#F733B6"/>
<circle cx="142" cy="281" r="8" fill="#F733B6"/>
<circle cx="205" cy="260" r="8" fill="#F733B6"/>
<circle cx="226" cy="323" r="8" fill="#F733B6"/>
<circle cx="226" cy="302" r="8" fill="#F733B6"/>
<circle cx="226" cy="281" r="8" fill="#F733B6"/>
<circle cx="226" cy="260" r="8" fill="#F733B6"/>
<circle cx="184" cy="260" r="8" fill="#F733B6"/>
<circle cx="163" cy="260" r="8" fill="#F733B6"/>
<circle cx="142" cy="260" r="8" fill="#F733B6"/>
<circle cx="142" cy="239" r="8" fill="#F733B6"/>
<circle cx="163" cy="239" r="8" fill="#F733B6"/>
<circle cx="184" cy="239" r="8" fill="#F733B6"/>
<circle cx="205" cy="239" r="8" fill="#F733B6"/>
<circle cx="205" cy="218" r="8" fill="#F733B6"/>
<circle cx="184" cy="218" r="8" fill="#F733B6"/>
<circle cx="163" cy="218" r="8" fill="#F733B6"/>
<circle cx="142" cy="218" r="8" fill="#F733B6"/>
<circle cx="226" cy="239" r="8" fill="#F733B6"/>
<circle cx="226" cy="218" r="8" fill="#F733B6"/>
<circle cx="142" cy="197" r="8" fill="#F733B6"/>
<circle cx="163" cy="197" r="8" fill="#F733B6"/>
<circle cx="184" cy="197" r="8" fill="#F733B6"/>
<circle cx="205" cy="197" r="8" fill="#F733B6"/>
<circle cx="205" cy="176" r="8" fill="#F733B6"/>
<circle cx="205" cy="155" r="8" fill="#F733B6"/>
<circle cx="184" cy="176" r="8" fill="#F733B6"/>
<circle cx="184" cy="155" r="8" fill="#F733B6"/>
<circle cx="163" cy="176" r="8" fill="#F733B6"/>
<circle cx="163" cy="155" r="8" fill="#F733B6"/>
<circle cx="142" cy="176" r="8" fill="#F733B6"/>
<circle cx="142" cy="155" r="8" fill="#F733B6"/>
<circle cx="205" cy="134" r="8" fill="#F733B6"/>
<circle cx="226" cy="197" r="8" fill="#F733B6"/>
<circle cx="226" cy="176" r="8" fill="#F733B6"/>
<circle cx="226" cy="155" r="8" fill="#F733B6"/>
<circle cx="226" cy="134" r="8" fill="#F733B6"/>
<circle cx="184" cy="134" r="8" fill="#F733B6"/>
<circle cx="163" cy="134" r="8" fill="#F733B6"/>
<circle cx="142" cy="134" r="8" fill="#F733B6"/>
<circle cx="142" cy="113" r="8" fill="#F733B6"/>
<circle cx="163" cy="113" r="8" fill="#F733B6"/>
<circle cx="184" cy="113" r="8" fill="#F733B6"/>
<circle cx="205" cy="113" r="8" fill="#F733B6"/>
<circle cx="205" cy="92" r="8" fill="#F733B6"/>
<circle cx="184" cy="92" r="8" fill="#F733B6"/>
<circle cx="163" cy="92" r="8" fill="#F733B6"/>
<circle cx="142" cy="92" r="8" fill="#F733B6"/>
<circle cx="226" cy="113" r="8" fill="#F733B6"/>
<circle cx="226" cy="92" r="8" fill="#F733B6"/>
<circle cx="205" cy="71" r="8" fill="#F733B6"/>
<circle cx="184" cy="71" r="8" fill="#F733B6"/>
<circle cx="163" cy="71" r="8" fill="#F733B6"/>
<circle cx="142" cy="71" r="8" fill="#F733B6"/>
<circle cx="205" cy="50" r="8" fill="#F733B6"/>
<circle cx="226" cy="71" r="8" fill="#F733B6"/>
<circle cx="226" cy="50" r="8" fill="#F733B6"/>
<circle cx="184" cy="50" r="8" fill="#F733B6"/>
<circle cx="163" cy="50" r="8" fill="#F733B6"/>
<circle cx="142" cy="50" r="8" fill="#F733B6"/>
<circle cx="142" cy="29" r="8" fill="#F733B6"/>
<circle cx="163" cy="29" r="8" fill="#F733B6"/>
<circle cx="184" cy="29" r="8" fill="#F733B6"/>
<circle cx="205" cy="29" r="8" fill="#F733B6"/>
<circle cx="184" cy="8" r="8" fill="#F733B6"/>
<circle cx="163" cy="8" r="8" fill="#F733B6"/>
<circle cx="142" cy="8" r="8" fill="#F733B6"/>
<circle cx="226" cy="29" r="8" fill="#F733B6"/>
<g clip-path="url(#clip0)">
<path d="M184 478C181.033 478 178.133 478.88 175.666 480.528C173.2 482.176 171.277 484.519 170.142 487.26C169.006 490.001 168.709 493.017 169.288 495.926C169.867 498.836 171.296 501.509 173.393 503.607C175.491 505.704 178.164 507.133 181.074 507.712C183.983 508.291 186.999 507.994 189.74 506.858C192.481 505.723 194.824 503.8 196.472 501.334C198.12 498.867 199 495.967 199 493C199 489.022 197.42 485.206 194.607 482.393C191.794 479.58 187.978 478 184 478ZM184 506C181.429 506 178.915 505.238 176.778 503.809C174.64 502.381 172.974 500.35 171.99 497.975C171.006 495.599 170.748 492.986 171.25 490.464C171.751 487.942 172.99 485.626 174.808 483.808C176.626 481.99 178.942 480.751 181.464 480.25C183.986 479.748 186.599 480.006 188.975 480.99C191.35 481.974 193.381 483.64 194.809 485.778C196.238 487.915 197 490.429 197 493C197 496.448 195.63 499.754 193.192 502.192C190.754 504.63 187.448 506 184 506Z" fill="#7C7171"/>
<path d="M184 495C182.357 495 180.739 495.406 179.289 496.18C177.84 496.954 176.604 498.074 175.69 499.44C175.608 499.549 175.549 499.673 175.517 499.805C175.485 499.937 175.48 500.074 175.503 500.209C175.526 500.343 175.576 500.471 175.65 500.585C175.724 500.699 175.82 500.797 175.933 500.872C176.046 500.948 176.174 501 176.307 501.024C176.441 501.049 176.578 501.046 176.711 501.016C176.844 500.986 176.969 500.929 177.079 500.849C177.188 500.769 177.281 500.667 177.35 500.55C178.081 499.457 179.07 498.561 180.23 497.941C181.39 497.321 182.685 496.997 184 496.997C185.315 496.997 186.61 497.321 187.77 497.941C188.93 498.561 189.919 499.457 190.65 500.55C190.719 500.667 190.812 500.769 190.921 500.849C191.031 500.929 191.156 500.986 191.289 501.016C191.421 501.046 191.559 501.049 191.693 501.024C191.826 501 191.954 500.948 192.067 500.872C192.18 500.797 192.276 500.699 192.35 500.585C192.424 500.471 192.474 500.343 192.497 500.209C192.519 500.074 192.515 499.937 192.483 499.805C192.45 499.673 192.392 499.549 192.31 499.44C191.396 498.074 190.16 496.954 188.711 496.18C187.261 495.406 185.643 495 184 495Z" fill="#7C7171"/>
<path d="M179.5 491C180.328 491 181 490.328 181 489.5C181 488.672 180.328 488 179.5 488C178.672 488 178 488.672 178 489.5C178 490.328 178.672 491 179.5 491Z" fill="#7C7171"/>
<path d="M188.5 491C189.328 491 190 490.328 190 489.5C190 488.672 189.328 488 188.5 488C187.672 488 187 488.672 187 489.5C187 490.328 187.672 491 188.5 491Z" fill="#7C7171"/>
</g>
<circle cx="276" cy="449" r="8" fill="#F50404"/>
<circle cx="297" cy="449" r="8" fill="#F50404"/>
<circle cx="318" cy="449" r="8" fill="#F50404"/>
<circle cx="339" cy="449" r="8" fill="#F50404"/>
<circle cx="339" cy="428" r="8" fill="#F50404"/>
<circle cx="339" cy="407" r="8" fill="#F50404"/>
<circle cx="318" cy="428" r="8" fill="#F50404"/>
<circle cx="318" cy="407" r="8" fill="#F50404"/>
<circle cx="297" cy="428" r="8" fill="#F50404"/>
<circle cx="297" cy="407" r="8" fill="#F50404"/>
<circle cx="276" cy="428" r="8" fill="#F50404"/>
<circle cx="276" cy="407" r="8" fill="#F50404"/>
<circle cx="339" cy="386" r="8" fill="#F50404"/>
<circle cx="360" cy="449" r="8" fill="#F50404"/>
<circle cx="360" cy="428" r="8" fill="#F50404"/>
<circle cx="360" cy="407" r="8" fill="#F50404"/>
<circle cx="360" cy="386" r="8" fill="#03004A"/>
<circle cx="318" cy="386" r="8" fill="#F50404"/>
<circle cx="297" cy="386" r="8" fill="#F50404"/>
<circle cx="276" cy="386" r="8" fill="#F50404"/>
<circle cx="276" cy="365" r="8" fill="#8A0100"/>
<circle cx="297" cy="365" r="8" fill="#8A0100"/>
<circle cx="318" cy="365" r="8" fill="#8A0100"/>
<circle cx="339" cy="365" r="8" fill="#8A0100"/>
<circle cx="318" cy="344" r="8" fill="#8A0100"/>
<circle cx="297" cy="344" r="8" fill="#8A0100"/>
<circle cx="360" cy="344" r="8" fill="#8A0100"/>
<circle cx="339" cy="344" r="8" fill="#8A0100"/>
<circle cx="276" cy="344" r="8" fill="#8A0100"/>
<circle cx="360" cy="365" r="8" fill="#8A0100"/>
<circle cx="276" cy="323" r="8" fill="#01A65F"/>
<circle cx="297" cy="323" r="8" fill="#01A65F"/>
<circle cx="318" cy="323" r="8" fill="#01A65F"/>
<circle cx="339" cy="323" r="8" fill="#01A65F"/>
<circle cx="297" cy="302" r="8" fill="#01C90F"/>
<circle cx="276" cy="302" r="8" fill="#01C90F"/>
<circle cx="360" cy="323" r="8" fill="#FAE901"/>
<g clip-path="url(#clip1)">
<path d="M317 477C314.033 477 311.133 477.88 308.666 479.528C306.2 481.176 304.277 483.519 303.142 486.26C302.006 489.001 301.709 492.017 302.288 494.926C302.867 497.836 304.296 500.509 306.393 502.607C308.491 504.704 311.164 506.133 314.074 506.712C316.983 507.291 319.999 506.994 322.74 505.858C325.481 504.723 327.824 502.8 329.472 500.334C331.12 497.867 332 494.967 332 492C332 488.022 330.42 484.206 327.607 481.393C324.794 478.58 320.978 477 317 477ZM317 505C314.429 505 311.915 504.238 309.778 502.809C307.64 501.381 305.974 499.35 304.99 496.975C304.006 494.599 303.748 491.986 304.25 489.464C304.751 486.942 305.99 484.626 307.808 482.808C309.626 480.99 311.942 479.751 314.464 479.25C316.986 478.748 319.599 479.006 321.975 479.99C324.35 480.974 326.381 482.64 327.809 484.778C329.238 486.915 330 489.429 330 492C330 495.448 328.63 498.754 326.192 501.192C323.754 503.63 320.448 505 317 505Z" fill="#7C7171"/>
<path d="M312.5 490C313.328 490 314 489.328 314 488.5C314 487.672 313.328 487 312.5 487C311.672 487 311 487.672 311 488.5C311 489.328 311.672 490 312.5 490Z" fill="#7C7171"/>
<path d="M321.5 490C322.328 490 323 489.328 323 488.5C323 487.672 322.328 487 321.5 487C320.672 487 320 487.672 320 488.5C320 489.328 320.672 490 321.5 490Z" fill="#7C7171"/>
<path d="M321 497H313C312.735 497 312.48 497.105 312.293 497.293C312.105 497.48 312 497.735 312 498C312 498.265 312.105 498.52 312.293 498.707C312.48 498.895 312.735 499 313 499H321C321.265 499 321.52 498.895 321.707 498.707C321.895 498.52 322 498.265 322 498C322 497.735 321.895 497.48 321.707 497.293C321.52 497.105 321.265 497 321 497Z" fill="#7C7171"/>
</g>
<circle cx="29" cy="449" r="8" fill="#3972E0"/>
<circle cx="50" cy="449" r="8" fill="#3972E0"/>
<circle cx="71" cy="449" r="8" fill="#3972E0"/>
<circle cx="92" cy="449" r="8" fill="#3972E0"/>
<circle cx="92" cy="428" r="8" fill="#FA8723"/>
<circle cx="92" cy="407" r="8" fill="#FA8723"/>
<circle cx="71" cy="428" r="8" fill="#FA8723"/>
<circle cx="71" cy="407" r="8" fill="#FA8723"/>
<circle cx="50" cy="428" r="8" fill="#FA8723"/>
<circle cx="50" cy="407" r="8" fill="#FA8723"/>
<circle cx="29" cy="428" r="8" fill="#FA8723"/>
<circle cx="29" cy="407" r="8" fill="#FA8723"/>
<circle cx="92" cy="386" r="8" fill="#FA8723"/>
<circle cx="71" cy="386" r="8" fill="#FA8723"/>
<circle cx="50" cy="386" r="8" fill="#FA8723"/>
<circle cx="29" cy="386" r="8" fill="#FA8723"/>
<circle cx="8" cy="449" r="8" fill="#0F69D6"/>
<circle cx="8" cy="428" r="8" fill="#FA8723"/>
<circle cx="8" cy="407" r="8" fill="#FA8723"/>
<circle cx="8" cy="386" r="8" fill="#FA8723"/>
<circle cx="29" cy="365" r="8" fill="#FA8723"/>
<circle cx="50" cy="365" r="8" fill="#FA8723"/>
<circle cx="71" cy="365" r="8" fill="#FA8723"/>
<circle cx="92" cy="365" r="8" fill="#FA8723"/>
<circle cx="92" cy="344" r="8" fill="#FA8723"/>
<circle cx="92" cy="323" r="8" fill="#FA8723"/>
<circle cx="71" cy="344" r="8" fill="#FA8723"/>
<circle cx="71" cy="323" r="8" fill="#FA8723"/>
<circle cx="50" cy="344" r="8" fill="#FA8723"/>
<circle cx="50" cy="323" r="8" fill="#FA8723"/>
<circle cx="29" cy="344" r="8" fill="#FA8723"/>
<circle cx="29" cy="323" r="8" fill="#FA8723"/>
<circle cx="92" cy="302" r="8" fill="#FA8723"/>
<circle cx="71" cy="302" r="8" fill="#FA8723"/>
<circle cx="50" cy="302" r="8" fill="#FA8723"/>
<circle cx="29" cy="302" r="8" fill="#FA8723"/>
<circle cx="8" cy="365" r="8" fill="#FA8723"/>
<circle cx="8" cy="344" r="8" fill="#FA8723"/>
<circle cx="8" cy="323" r="8" fill="#FA8723"/>
<circle cx="8" cy="302" r="8" fill="#FA8723"/>
<circle cx="92" cy="281" r="8" fill="#FA8723"/>
<circle cx="71" cy="281" r="8" fill="#FA8723"/>
<circle cx="50" cy="281" r="8" fill="#FA8723"/>
<circle cx="29" cy="281" r="8" fill="#FA8723"/>
<circle cx="92" cy="260" r="8" fill="#FA8723"/>
<circle cx="71" cy="260" r="8" fill="#FA8723"/>
<circle cx="50" cy="260" r="8" fill="#FA8723"/>
<circle cx="29" cy="260" r="8" fill="#FA8723"/>
<circle cx="8" cy="281" r="8" fill="#FA8723"/>
<circle cx="8" cy="260" r="8" fill="#FA8723"/>
<circle cx="71" cy="239" r="8" fill="#FA8723"/>
<circle cx="50" cy="239" r="8" fill="#FA8723"/>
<circle cx="29" cy="239" r="8" fill="#FA8723"/>
<circle cx="8" cy="239" r="8" fill="#FA8723"/>
<circle cx="71" cy="218" r="8" fill="#FA8723"/>
<circle cx="71" cy="155" r="8" fill="#FA8723"/>
<circle cx="92" cy="155" r="8" fill="#FA8723"/>
<circle cx="50" cy="155" r="8" fill="#FA8723"/>
<circle cx="29" cy="155" r="8" fill="#FA8723"/>
<circle cx="8" cy="155" r="8" fill="#FA8723"/>
<circle cx="8" cy="134" r="8" fill="#FA8723"/>
<circle cx="29" cy="134" r="8" fill="#FA8723"/>
<circle cx="50" cy="134" r="8" fill="#FA8723"/>
<circle cx="71" cy="134" r="8" fill="#FA8723"/>
<circle cx="71" cy="113" r="8" fill="#FA8723"/>
<circle cx="50" cy="113" r="8" fill="#FA8723"/>
<circle cx="29" cy="113" r="8" fill="#FA8723"/>
<circle cx="8" cy="113" r="8" fill="#FA8723"/>
<circle cx="92" cy="134" r="8" fill="#FA8723"/>
<circle cx="92" cy="113" r="8" fill="#11CFF5"/>
<circle cx="92" cy="239" r="8" fill="#FA8723"/>
<circle cx="92" cy="218" r="8" fill="#FA8723"/>
<circle cx="50" cy="218" r="8" fill="#FA8723"/>
<circle cx="29" cy="218" r="8" fill="#FA8723"/>
<circle cx="8" cy="218" r="8" fill="#FA8723"/>
<circle cx="71" cy="197" r="8" fill="#FA8723"/>
<circle cx="71" cy="176" r="8" fill="#FA8723"/>
<circle cx="50" cy="197" r="8" fill="#FA8723"/>
<circle cx="50" cy="176" r="8" fill="#FA8723"/>
<circle cx="29" cy="197" r="8" fill="#FA8723"/>
<circle cx="29" cy="176" r="8" fill="#FA8723"/>
<circle cx="8" cy="197" r="8" fill="#FA8723"/>
<circle cx="8" cy="176" r="8" fill="#FA8723"/>
<circle cx="92" cy="197" r="8" fill="#FA8723"/>
<circle cx="92" cy="176" r="8" fill="#FA8723"/>
<g clip-path="url(#clip2)">
<path d="M50 478C47.0333 478 44.1332 478.88 41.6665 480.528C39.1997 482.176 37.2771 484.519 36.1418 487.26C35.0065 490.001 34.7094 493.017 35.2882 495.926C35.867 498.836 37.2956 501.509 39.3934 503.607C41.4912 505.704 44.1639 507.133 47.0737 507.712C49.9834 508.291 52.9994 507.994 55.7403 506.858C58.4812 505.723 60.8238 503.8 62.4721 501.334C64.1203 498.867 65 495.967 65 493C65 489.022 63.4197 485.206 60.6066 482.393C57.7936 479.58 53.9783 478 50 478ZM50 506C47.4288 506 44.9154 505.238 42.7776 503.809C40.6398 502.381 38.9735 500.35 37.9896 497.975C37.0056 495.599 36.7482 492.986 37.2498 490.464C37.7514 487.942 38.9895 485.626 40.8076 483.808C42.6257 481.99 44.9421 480.751 47.4638 480.25C49.9856 479.748 52.5995 480.006 54.9749 480.99C57.3503 481.974 59.3807 483.64 60.8091 485.778C62.2376 487.915 63 490.429 63 493C63 496.448 61.6304 499.754 59.1924 502.192C56.7544 504.63 53.4478 506 50 506Z" fill="#7C7171"/>
<path d="M56.65 497.44C55.9189 498.533 54.9297 499.429 53.7697 500.049C52.6098 500.669 51.315 500.993 50 500.993C48.6849 500.993 47.3901 500.669 46.2302 500.049C45.0703 499.429 44.081 498.533 43.35 497.44C43.2808 497.323 43.1884 497.221 43.0785 497.141C42.9687 497.061 42.8436 497.004 42.711 496.974C42.5784 496.944 42.4411 496.941 42.3073 496.966C42.1736 496.99 42.0463 497.042 41.9333 497.118C41.8202 497.193 41.7238 497.291 41.6499 497.405C41.5759 497.519 41.526 497.647 41.5033 497.781C41.4805 497.916 41.4853 498.053 41.5174 498.185C41.5495 498.317 41.6082 498.441 41.69 498.55C42.604 499.915 43.8403 501.035 45.2897 501.808C46.7391 502.582 48.3569 502.987 50 502.987C51.643 502.987 53.2608 502.582 54.7102 501.808C56.1596 501.035 57.396 499.915 58.31 498.55C58.3917 498.441 58.4504 498.317 58.4825 498.185C58.5146 498.053 58.5194 497.916 58.4967 497.781C58.4739 497.647 58.424 497.519 58.3501 497.405C58.2761 497.291 58.1797 497.193 58.0666 497.118C57.9536 497.042 57.8263 496.99 57.6926 496.966C57.5589 496.941 57.4215 496.944 57.2889 496.974C57.1563 497.004 57.0312 497.061 56.9214 497.141C56.8115 497.221 56.7192 497.323 56.65 497.44Z" fill="#7C7171"/>
<path d="M45.5 491C46.3284 491 47 490.328 47 489.5C47 488.672 46.3284 488 45.5 488C44.6716 488 44 488.672 44 489.5C44 490.328 44.6716 491 45.5 491Z" fill="#7C7171"/>
<path d="M54.5 491C55.3284 491 56 490.328 56 489.5C56 488.672 55.3284 488 54.5 488C53.6716 488 53 488.672 53 489.5C53 490.328 53.6716 491 54.5 491Z" fill="#7C7171"/>
</g>
<defs>
<clipPath id="clip0">
<rect x="168" y="477" width="32" height="40" fill="white"/>
</clipPath>
<clipPath id="clip1">
<rect x="301" y="476" width="32" height="40" fill="white"/>
</clipPath>
<clipPath id="clip2">
<rect x="34" y="477" width="32" height="40" fill="white"/>
</clipPath>
</defs>
</svg>
